Normalized EMG Linear Envelopes
nRows=190
nColumns=4

endheader
time	 med_gas_r	  soleus_r	 tib_ant_r	
0	  0.014285	 -0.015074	 -0.022288	
0.0332661	  0.021343	  0.061128	 -0.004603	
0.0665323	  0.027689	  0.129285	  0.010646	
0.0997984	  0.032822	  0.184223	  0.022007	
0.133065	  0.036706	  0.224913	  0.029403	
0.166331	  0.039601	  0.253090	  0.033633	
0.199597	  0.041765	  0.271219	  0.035683	
0.232863	  0.043293	  0.281402	  0.036318	
0.266129	  0.044170	  0.285453	  0.036050	
0.299395	  0.044440	  0.285290	  0.035242	
0.332661	  0.044315	  0.282917	  0.034179	
0.365927	  0.044135	  0.279978	  0.033063	
0.399194	  0.044208	  0.277379	  0.032005	
0.43246	  0.044626	  0.275344	  0.031051	
0.465726	  0.045196	  0.273822	  0.030247	
0.498992	  0.045551	  0.272886	  0.029660	
0.532258	  0.045429	  0.272796	  0.029357	
0.565524	  0.044915	  0.273708	  0.029347	
0.59879	  0.044420	  0.275393	  0.029550	
0.632056	  0.044397	  0.277318	  0.029831	
0.665323	  0.044975	  0.278998	  0.030076	
0.698589	  0.045839	  0.280145	  0.030251	
0.731855	  0.046418	  0.280397	  0.030396	
0.765121	  0.046244	  0.279093	  0.030561	
0.798387	  0.045204	  0.275679	  0.030761	
0.831653	  0.043550	  0.270621	  0.030984	
0.864919	  0.041699	  0.265864	  0.031236	
0.898185	  0.039993	  0.264131	  0.031557	
0.931452	  0.038574	  0.267332	  0.031977	
0.964718	  0.037420	  0.275253	  0.032463	
0.997984	  0.036450	  0.285584	  0.032905	
1.03125	  0.035595	  0.295354	  0.033176	
1.06452	  0.034795	  0.302662	  0.033217	
1.09778	  0.033993	  0.307327	  0.033074	
1.13105	  0.033147	  0.309999	  0.032855	
1.16431	  0.032299	  0.310748	  0.032636	
1.19758	  0.031613	  0.308573	  0.032406	
1.23085	  0.031318	  0.302350	  0.032076	
1.26411	  0.031553	  0.292290	  0.031563	
1.29738	  0.032224	  0.280516	  0.030867	
1.33065	  0.033011	  0.270164	  0.030084	
1.36391	  0.033548	  0.263743	  0.029368	
1.39718	  0.033651	  0.262042	  0.028847	
1.43044	  0.033428	  0.264286	  0.028575	
1.46371	  0.033201	  0.269095	  0.028532	
1.49698	  0.033283	  0.275262	  0.028658	
1.53024	  0.033766	  0.281789	  0.028884	
1.56351	  0.034467	  0.287537	  0.029147	
1.59677	  0.035047	  0.291233	  0.029379	
1.63004	  0.035242	  0.292082	  0.029509	
1.66331	  0.035025	  0.290458	  0.029483	
1.69657	  0.034608	  0.287930	  0.029281	
1.72984	  0.034288	  0.286449	  0.028929	
1.7631	  0.034248	  0.287284	  0.028495	
1.79637	  0.034464	  0.290520	  0.028071	
1.82964	  0.034737	  0.295417	  0.027749	
1.8629	  0.034823	  0.301178	  0.027597	
1.89617	  0.034584	  0.307476	  0.027656	
1.92944	  0.034084	  0.314438	  0.027947	
1.9627	  0.033568	  0.322282	  0.028497	
1.99597	  0.033312	  0.330895	  0.029340	
2.02923	  0.033440	  0.339531	  0.030462	
2.0625	  0.033839	  0.346786	  0.031734	
2.09577	  0.034272	  0.350960	  0.032900	
2.12903	  0.034574	  0.350645	  0.033672	
2.1623	  0.034772	  0.345181	  0.033865	
2.19556	  0.035012	  0.334813	  0.033491	
2.22883	  0.035401	  0.320678	  0.032726	
2.2621	  0.035918	  0.304723	  0.031801	
2.29536	  0.036465	  0.289366	  0.030896	
2.32863	  0.036972	  0.276777	  0.030103	
2.3619	  0.037417	  0.268118	  0.029450	
2.39516	  0.037766	  0.263306	  0.028935	
2.42843	  0.037916	  0.261454	  0.028548	
2.46169	  0.037730	  0.261548	  0.028263	
2.49496	  0.037146	  0.262789	  0.028030	
2.52823	  0.036246	  0.264498	  0.027796	
2.56149	  0.035212	  0.265933	  0.027540	
2.59476	  0.034231	  0.266348	  0.027305	
2.62802	  0.033423	  0.265296	  0.027198	
2.66129	  0.032837	  0.262878	  0.027354	
2.69456	  0.032477	  0.259687	  0.027870	
2.72782	  0.032326	  0.256523	  0.028747	
2.76109	  0.032372	  0.254170	  0.029864	
2.79435	  0.032641	  0.253369	  0.031005	
2.82762	  0.033193	  0.254819	  0.031923	
2.86089	  0.034060	  0.258949	  0.032421	
2.89415	  0.035138	  0.265559	  0.032416	
2.92742	  0.036158	  0.273728	  0.031953	
2.96069	  0.036803	  0.282160	  0.031180	
2.99395	  0.036919	  0.289718	  0.030292	
3.02722	  0.036623	  0.295707	  0.029461	
3.06048	  0.036234	  0.299848	  0.028794	
3.09375	  0.036060	  0.302162	  0.028319	
3.12702	  0.036201	  0.302910	  0.028021	
3.16028	  0.036486	  0.302483	  0.027875	
3.19355	  0.036566	  0.301253	  0.027866	
3.22681	  0.036123	  0.299543	  0.027987	
3.26008	  0.035083	  0.297722	  0.028232	
3.29335	  0.033665	  0.296229	  0.028598	
3.32661	  0.032247	  0.295399	  0.029070	
3.35988	  0.031145	  0.295310	  0.029604	
3.39315	  0.030468	  0.295846	  0.030110	
3.42641	  0.030147	  0.296834	  0.030477	
3.45968	  0.030079	  0.298003	  0.030624	
3.49294	  0.030235	  0.298811	  0.030536	
3.52621	  0.030667	  0.298506	  0.030265	
3.55948	  0.031420	  0.296561	  0.029889	
3.59274	  0.032447	  0.293132	  0.029480	
3.62601	  0.033548	  0.289054	  0.029088	
3.65927	  0.034403	  0.285240	  0.028740	
3.69254	  0.034695	  0.282030	  0.028448	
3.72581	  0.034286	  0.279149	  0.028216	
3.75907	  0.033336	  0.276361	  0.028056	
3.79234	  0.032256	  0.274052	  0.027987	
3.8256	  0.031499	  0.272964	  0.028018	
3.85887	  0.031310	  0.273269	  0.028119	
3.89214	  0.031616	  0.274058	  0.028218	
3.9254	  0.032121	  0.273968	  0.028241	
3.95867	  0.032517	  0.272389	  0.028147	
3.99194	  0.032644	  0.270077	  0.027949	
4.0252	  0.032513	  0.268626	  0.027697	
4.05847	  0.032245	  0.269344	  0.027440	
4.09173	  0.031998	  0.272473	  0.027198	
4.125	  0.031935	  0.277190	  0.026965	
4.15827	  0.032178	  0.282190	  0.026733	
4.19153	  0.032763	  0.286352	  0.026529	
4.2248	  0.033596	  0.289107	  0.026414	
4.25806	  0.034489	  0.290384	  0.026461	
4.29133	  0.035264	  0.290317	  0.026700	
4.3246	  0.035866	  0.289020	  0.027094	
4.35786	  0.036375	  0.286716	  0.027547	
4.39113	  0.036887	  0.284133	  0.027965	
4.4244	  0.037378	  0.282681	  0.028295	
4.45766	  0.037671	  0.283971	  0.028547	
4.49093	  0.037550	  0.288798	  0.028773	
4.52419	  0.036928	  0.296455	  0.029031	
4.55746	  0.035932	  0.305072	  0.029362	
4.59073	  0.034847	  0.312771	  0.029775	
4.62399	  0.033972	  0.318560	  0.030251	
4.65726	  0.033505	  0.322266	  0.030738	
4.69052	  0.033507	  0.323868	  0.031165	
4.72379	  0.033978	  0.323179	  0.031465	
4.75706	  0.034972	  0.320292	  0.031604	
4.79032	  0.036655	  0.316182	  0.031602	
4.82359	  0.039200	  0.312626	  0.031518	
4.85685	  0.042548	  0.311270	  0.031406	
4.89012	  0.046196	  0.312583	  0.031289	
4.92339	  0.049267	  0.315510	  0.031164	
4.95665	  0.050881	  0.318024	  0.031042	
4.98992	  0.050629	  0.318108	  0.030963	
5.02319	  0.048804	  0.314580	  0.030977	
5.05645	  0.046214	  0.307406	  0.031087	
5.08972	  0.043731	  0.297491	  0.031230	
5.12298	  0.041892	  0.286203	  0.031311	
5.15625	  0.040788	  0.274994	  0.031260	
5.18952	  0.040210	  0.265276	  0.031073	
5.22278	  0.039896	  0.258394	  0.030796	
5.25605	  0.039703	  0.255410	  0.030485	
5.28931	  0.039614	  0.256591	  0.030174	
5.32258	  0.039624	  0.260932	  0.029864	
5.35585	  0.039612	  0.266232	  0.029535	
5.38911	  0.039342	  0.269945	  0.029172	
5.42238	  0.038610	  0.270380	  0.028797	
5.45565	  0.037406	  0.267472	  0.028482	
5.48891	  0.035971	  0.262664	  0.028318	
5.52218	  0.034678	  0.258078	  0.028358	
5.55544	  0.033833	  0.255511	  0.028568	
5.58871	  0.033542	  0.255707	  0.028852	
5.62198	  0.033698	  0.258141	  0.029123	
5.65524	  0.034088	  0.261413	  0.029358	
5.68851	  0.034516	  0.264062	  0.029603	
5.72177	  0.034876	  0.265389	  0.029916	
5.75504	  0.035139	  0.265787	  0.030313	
5.78831	  0.035282	  0.266354	  0.030750	
5.82157	  0.035222	  0.268030	  0.031142	
5.85484	  0.034822	  0.270833	  0.031398	
5.8881	  0.033988	  0.273737	  0.031445	
5.92137	  0.032802	  0.275342	  0.031255	
5.95464	  0.031592	  0.274855	  0.030853	
5.9879	  0.030829	  0.272630	  0.030316	
6.02117	  0.030880	  0.269919	  0.029748	
6.05444	  0.031763	  0.268135	  0.029248	
6.0877	  0.033090	  0.268213	  0.028885	
6.12097	  0.034280	  0.270311	  0.028701	
6.15423	  0.034909	  0.273690	  0.028717	
6.1875	  0.034941	  0.276763	  0.028941	
6.22077	  0.034649	  0.277543	  0.029348	
6.25403	  0.034324	  0.274565	  0.029860	
6.2873	  0.034026	  0.267733	  0.030338	
